M48
; DRILL file {KiCad 9.0.7} date 2026-03-29T13:33:06+0200
; FORMAT={-:-/ absolute / metric / decimal}
; #@! TF.CreationDate,2026-03-29T13:33:06+02:00
; #@! TF.GenerationSoftware,Kicad,Pcbnew,9.0.7
; #@! TF.FileFunction,NonPlated,1,2,NPTH
FMAT,2
METRIC
; #@! TA.AperFunction,NonPlated,NPTH,ComponentDrill
T1C0.650
; #@! TA.AperFunction,NonPlated,NPTH,ComponentDrill
T2C1.750
; #@! TA.AperFunction,NonPlated,NPTH,ComponentDrill
T3C3.988
%
G90
G05
T1
X289.528Y121.046
X295.308Y121.046
T2
X6.35Y116.681
X6.35Y92.869
X6.35Y54.769
X8.731Y35.719
X8.731Y16.669
X11.112Y73.819
X13.494Y54.769
X16.51Y116.681
X16.51Y92.869
X16.51Y54.769
X18.256Y35.719
X18.891Y35.719
X18.891Y16.669
X21.272Y73.819
X23.654Y54.769
X25.4Y92.869
X27.781Y35.719
X28.416Y35.719
X30.162Y116.681
X32.544Y16.669
X34.925Y73.819
X35.56Y92.869
X37.941Y35.719
X39.688Y54.769
X40.322Y116.681
X42.704Y16.669
X44.45Y92.869
X45.085Y73.819
X49.212Y116.681
X49.212Y35.719
X49.847Y54.769
X53.975Y73.819
X54.61Y92.869
X56.356Y16.669
X58.737Y54.769
X59.372Y116.681
X59.372Y35.719
X63.5Y92.869
X64.135Y73.819
X66.516Y16.669
X68.263Y116.681
X68.263Y35.719
X68.897Y54.769
X73.025Y73.819
X73.66Y92.869
X77.787Y54.769
X78.422Y116.681
X78.422Y35.719
X82.55Y92.869
X83.185Y73.819
X87.312Y116.681
X87.312Y35.719
X87.312Y16.669
X87.947Y54.769
X92.075Y73.819
X92.71Y92.869
X96.837Y54.769
X97.472Y116.681
X97.472Y35.719
X97.472Y16.669
X101.6Y92.869
X102.235Y73.819
X106.362Y35.719
X106.997Y54.769
X111.125Y116.681
X111.125Y73.819
X111.76Y92.869
X115.887Y54.769
X116.522Y35.719
X120.65Y92.869
X121.285Y116.681
X121.285Y73.819
X125.412Y35.719
X126.047Y54.769
X127.794Y16.669
X130.175Y116.681
X130.175Y73.819
X130.81Y92.869
X134.938Y54.769
X135.572Y35.719
X137.954Y16.669
X139.7Y92.869
X140.335Y116.681
X140.335Y73.819
X144.463Y35.719
X145.097Y54.769
X149.225Y116.681
X149.225Y73.819
X149.86Y92.869
X153.987Y54.769
X154.623Y35.719
X158.75Y92.869
X159.385Y116.681
X159.385Y73.819
X163.512Y35.719
X164.147Y54.769
X168.275Y116.681
X168.275Y73.819
X168.275Y16.669
X168.91Y92.869
X173.037Y54.769
X173.672Y35.719
X177.8Y92.869
X178.435Y116.681
X178.435Y73.819
X178.435Y16.669
X182.562Y35.719
X183.197Y54.769
X187.325Y73.819
X187.96Y92.869
X192.087Y116.681
X192.087Y54.769
X192.722Y35.719
X196.85Y92.869
X196.85Y16.669
X197.485Y73.819
X201.612Y35.719
X202.248Y116.681
X202.248Y54.769
X206.375Y73.819
X207.01Y92.869
X207.01Y16.669
X211.137Y116.681
X211.137Y54.769
X211.772Y35.719
X215.9Y92.869
X215.9Y16.669
X216.535Y73.819
X220.662Y35.719
X221.297Y116.681
X221.297Y54.769
X225.425Y73.819
X226.06Y92.869
X226.06Y16.669
X230.188Y116.681
X230.188Y54.769
X230.822Y35.719
X234.95Y92.869
X234.95Y16.669
X235.585Y73.819
X240.347Y116.681
X240.347Y54.769
X244.475Y73.819
X245.11Y92.869
X245.11Y16.669
X246.856Y35.719
X249.237Y116.681
X254.0Y92.869
X254.635Y73.819
X257.016Y35.719
X258.762Y11.906
X259.397Y116.681
X261.144Y54.769
X263.525Y92.869
X264.16Y92.869
X268.287Y73.819
X268.923Y11.906
X271.304Y54.769
X273.05Y116.681
X273.05Y92.869
X273.685Y92.869
X277.812Y30.956
X277.812Y11.906
X278.447Y73.819
X283.21Y116.681
X283.21Y92.869
X287.972Y30.956
X287.972Y11.906
X296.863Y11.906
X301.625Y116.681
X301.625Y92.869
X301.625Y73.819
X301.625Y54.769
X301.625Y35.719
X307.022Y11.906
X311.785Y116.681
X311.785Y92.869
X311.785Y73.819
X311.785Y54.769
X311.785Y35.719
X320.675Y92.869
X320.675Y73.819
X320.675Y54.769
X320.675Y35.719
X320.675Y16.669
X330.835Y92.869
X330.835Y73.819
X330.835Y54.769
X330.835Y35.719
X330.835Y16.669
X339.725Y92.869
X339.725Y73.819
X339.725Y54.769
X339.725Y35.719
X339.725Y16.669
X349.885Y92.869
X349.885Y73.819
X349.885Y54.769
X349.885Y35.719
X349.885Y16.669
X358.775Y92.869
X358.775Y64.294
X358.775Y26.194
X368.935Y92.869
X368.935Y64.294
X368.935Y26.194
T3
X11.43Y116.681
X11.43Y92.869
X11.43Y54.769
X11.43Y27.464
X13.811Y35.719
X13.811Y16.669
X16.192Y73.819
X18.574Y54.769
X23.336Y35.719
X30.48Y92.869
X32.861Y35.719
X35.242Y116.681
X35.242Y27.464
X37.624Y16.669
X40.005Y73.819
X44.767Y54.769
X49.53Y92.869
X54.292Y116.681
X54.292Y35.719
X59.055Y73.819
X61.436Y16.669
X63.817Y54.769
X68.58Y92.869
X73.343Y116.681
X73.343Y35.719
X78.105Y73.819
X80.486Y24.924
X82.867Y54.769
X82.867Y24.924
X87.63Y92.869
X92.392Y116.681
X92.392Y35.719
X92.392Y16.669
X97.155Y73.819
X101.917Y54.769
X104.299Y24.924
X106.68Y92.869
X111.442Y35.719
X116.205Y116.681
X116.205Y73.819
X120.968Y54.769
X120.968Y24.924
X125.73Y92.869
X130.493Y35.719
X132.874Y16.669
X135.255Y116.681
X135.255Y73.819
X140.017Y54.769
X144.78Y92.869
X144.78Y24.924
X149.542Y35.719
X154.305Y116.681
X154.305Y73.819
X159.067Y54.769
X161.449Y24.924
X163.83Y92.869
X168.593Y35.719
X173.355Y116.681
X173.355Y73.819
X173.355Y16.669
X178.117Y54.769
X182.88Y92.869
X182.88Y24.924
X185.261Y24.924
X187.642Y35.719
X192.405Y73.819
X197.167Y116.681
X197.167Y54.769
X201.93Y92.869
X201.93Y16.669
X206.692Y35.719
X211.455Y73.819
X216.218Y116.681
X216.218Y54.769
X220.98Y92.869
X220.98Y16.669
X225.742Y35.719
X230.505Y73.819
X235.267Y116.681
X235.267Y54.769
X240.03Y92.869
X240.03Y16.669
X249.555Y73.819
X251.936Y35.719
X254.317Y116.681
X254.317Y63.024
X256.699Y84.614
X259.08Y92.869
X263.842Y11.906
X266.224Y54.769
X268.605Y92.869
X273.368Y73.819
X278.13Y116.681
X278.13Y92.869
X278.13Y63.024
X280.511Y84.614
X282.892Y30.956
X282.892Y11.906
X301.942Y11.906
X306.705Y116.681
X306.705Y92.869
X306.705Y73.819
X306.705Y54.769
X306.705Y35.719
X325.755Y92.869
X325.755Y73.819
X325.755Y54.769
X325.755Y35.719
X325.755Y16.669
X344.805Y92.869
X344.805Y73.819
X344.805Y54.769
X344.805Y35.719
X344.805Y16.669
X355.6Y76.2
X355.6Y52.387
X355.6Y38.1
X355.6Y14.287
X363.855Y92.869
X363.855Y64.294
X363.855Y26.194
M30
