M48
; DRILL file {KiCad 9.0.7} date 2026-03-29T13:33:06+0200
; FORMAT={-:-/ absolute / metric / decimal}
; #@! TF.CreationDate,2026-03-29T13:33:06+02:00
; #@! TF.GenerationSoftware,Kicad,Pcbnew,9.0.7
; #@! TF.FileFunction,Plated,1,2,PTH
FMAT,2
METRIC
; #@! TA.AperFunction,Plated,PTH,ViaDrill
T1C0.300
; #@! TA.AperFunction,Plated,PTH,ViaDrill
T2C0.400
; #@! TA.AperFunction,Plated,PTH,ComponentDrill
T3C0.600
; #@! TA.AperFunction,Plated,PTH,ComponentDrill
T4C1.000
; #@! TA.AperFunction,Plated,PTH,ComponentDrill
T5C3.000
; #@! TA.AperFunction,Plated,PTH,ComponentDrill
T6C3.048
%
G90
G05
T1
X2.858Y49.611
X5.205Y88.431
X8.238Y11.764
X13.544Y51.439
X13.924Y31.737
X15.524Y64.294
X17.017Y30.912
X17.755Y51.006
X24.13Y87.312
X24.242Y32.531
X25.036Y27.769
X25.717Y107.156
X25.717Y64.294
X28.099Y107.156
X29.005Y28.562
X29.017Y64.294
X31.386Y11.1
X32.974Y31.737
X38.417Y49.212
X39.93Y37.025
X41.593Y111.125
X43.18Y87.312
X44.88Y31.737
X46.355Y68.263
X49.53Y64.294
X55.199Y11.1
X57.467Y49.212
X62.23Y87.312
X62.342Y28.562
X63.024Y107.156
X64.724Y28.562
X65.405Y107.156
X65.405Y68.263
X68.58Y107.156
X76.517Y49.212
X79.692Y111.125
X79.805Y30.15
X81.28Y87.312
X84.455Y68.263
X86.819Y11.764
X95.567Y49.212
X98.855Y28.562
X100.33Y87.312
X101.236Y28.562
X102.711Y107.156
X103.505Y68.263
X105.886Y107.156
X109.061Y107.156
X114.617Y49.212
X117.905Y30.15
X119.38Y87.312
X122.555Y111.125
X122.555Y68.263
X127.296Y11.76
X133.667Y49.212
X138.43Y87.312
X139.336Y28.562
X141.605Y68.263
X142.511Y28.562
X143.986Y107.156
X146.368Y107.156
X149.542Y107.156
X152.718Y49.212
X156.005Y30.15
X157.48Y87.312
X160.655Y111.125
X160.655Y68.263
X167.782Y11.764
X171.767Y49.212
X176.53Y87.312
X177.436Y28.562
X179.705Y68.263
X179.817Y28.562
X183.674Y107.156
X186.055Y107.156
X189.23Y107.156
X190.817Y49.212
X194.105Y30.15
X195.58Y87.312
X196.357Y11.764
X198.755Y68.263
X203.517Y111.125
X209.867Y49.212
X214.63Y87.312
X214.742Y28.562
X214.742Y11.1
X217.124Y28.562
X217.805Y68.263
X224.949Y107.156
X227.33Y107.156
X228.917Y49.212
X230.505Y107.156
X232.205Y30.15
X233.68Y87.312
X233.792Y11.1
X236.855Y68.263
X241.617Y111.125
X254.93Y91.486
X255.905Y68.263
X257.642Y27.931
X257.711Y30.381
X257.731Y31.195
X258.269Y7.002
X260.667Y50.006
X260.939Y87.041
X261.661Y25.667
X262.417Y97.239
X265.159Y26.194
X265.43Y107.156
X265.843Y92.885
X266.217Y38.605
X267.017Y96.837
X267.714Y26.194
X267.811Y107.156
X268.767Y27.781
X270.986Y90.487
X272.373Y25.4
X272.574Y49.832
X276.051Y38.839
X276.542Y44.03
X276.655Y6.337
X277.309Y68.789
X277.336Y44.852
X277.536Y67.569
X278.13Y87.312
X278.13Y36.512
X278.13Y28.607
X278.13Y27.781
X278.13Y26.194
X278.971Y69.069
X279.086Y80.85
X279.462Y52.681
X279.611Y55.244
X279.818Y56.813
X279.88Y81.377
X280.433Y71.47
X280.438Y56.185
X280.566Y81.904
X280.695Y60.761
X281.223Y61.52
X281.306Y47.233
X281.306Y46.224
X281.936Y63.108
X282.463Y80.368
X282.886Y57.655
X283.053Y81.062
X283.678Y81.587
X283.686Y85.725
X283.817Y97.444
X284.48Y111.125
X285.225Y86.562
X285.817Y92.794
X286.725Y88.062
X286.726Y95.969
X287.353Y97.239
X287.655Y83.344
X287.98Y96.496
X288.49Y65.28
X288.611Y112.712
X288.611Y111.877
X288.611Y110.375
X289.06Y65.852
X289.172Y118.109
X289.243Y25.4
X290.83Y115.511
X291.51Y65.919
X291.557Y118.011
X291.715Y112.712
X292.417Y26.987
X293.211Y73.025
X293.601Y53.811
X293.664Y114.3
X294.252Y116.261
X294.926Y16.196
X294.961Y98.827
X295.592Y114.193
X295.755Y100.414
X295.805Y71.47
X296.159Y6.339
X296.261Y51.139
X296.315Y95.969
X296.557Y61.122
X296.788Y44.277
X296.788Y40.809
X297.315Y44.88
X297.315Y41.678
X297.315Y29.77
X297.315Y24.067
X297.842Y44.277
X297.842Y40.883
X297.842Y29.134
X297.842Y23.42
X298.369Y101.605
X298.369Y100.414
X298.369Y88.062
X298.369Y86.562
X298.767Y40.481
X299.207Y93.548
X299.561Y71.47
X299.561Y69.069
X299.561Y67.569
X299.561Y51.139
X299.561Y49.46
X299.561Y47.981
X299.561Y45.244
X299.711Y101.013
X300.355Y87.312
X301.149Y112.712
X301.149Y111.877
X301.149Y110.375
X301.525Y50.953
X301.942Y22.225
X312.261Y110.331
X313.055Y68.263
X315.549Y28.562
X316.23Y83.344
X316.23Y69.85
X316.23Y34.925
X317.136Y28.562
X319.405Y87.312
X319.405Y49.212
X320.212Y8.024
X332.105Y68.263
X332.217Y30.15
X338.455Y87.312
X338.455Y49.212
X338.567Y11.1
X350.361Y67.469
X352.061Y28.562
X354.33Y49.212
X357.505Y87.312
X358.299Y22.225
X359.092Y61.119
X359.092Y58.737
X360.68Y23.019
X368.455Y62.075
X368.885Y24.438
X369.411Y60.325
X369.524Y22.212
T2
X288.787Y51.144
X290.186Y53.28
X291.246Y64.241
X296.196Y58.23
T4
X287.306Y2.574
X289.846Y2.574
X292.386Y2.574
X294.926Y2.574
X297.466Y2.574
T5
X7.62Y119.221
X7.62Y95.409
X7.62Y57.309
X10.001Y19.209
X11.271Y30.639
X12.383Y76.359
X13.97Y121.761
X13.97Y97.949
X13.97Y59.849
X16.034Y49.689
X16.351Y21.749
X17.621Y33.179
X18.732Y78.899
X19.526Y38.259
X22.384Y52.229
X25.876Y40.799
X26.67Y95.409
X30.321Y30.639
X31.432Y119.221
X33.02Y97.949
X33.814Y19.209
X36.195Y76.359
X36.671Y33.179
X37.782Y121.761
X40.164Y21.749
X40.957Y57.309
X42.545Y78.899
X45.72Y95.409
X47.307Y59.849
X50.482Y119.221
X50.482Y38.259
X52.07Y97.949
X55.245Y76.359
X56.832Y121.761
X56.832Y40.799
X57.626Y19.209
X60.008Y57.309
X61.595Y78.899
X63.976Y21.749
X64.77Y95.409
X66.358Y59.849
X69.532Y119.221
X69.532Y38.259
X71.12Y97.949
X74.295Y76.359
X75.882Y121.761
X75.882Y40.799
X79.057Y57.309
X80.645Y78.899
X83.82Y95.409
X85.407Y59.849
X88.582Y119.221
X88.582Y38.259
X88.582Y19.209
X90.17Y97.949
X93.345Y76.359
X94.932Y121.761
X94.932Y40.799
X94.932Y21.749
X98.108Y57.309
X99.695Y78.899
X102.87Y95.409
X104.457Y59.849
X107.632Y38.259
X109.22Y97.949
X112.395Y119.221
X112.395Y76.359
X113.983Y40.799
X117.157Y57.309
X118.745Y121.761
X118.745Y78.899
X121.92Y95.409
X123.507Y59.849
X126.682Y38.259
X128.27Y97.949
X129.064Y19.209
X131.445Y119.221
X131.445Y76.359
X133.032Y40.799
X135.414Y21.749
X136.207Y57.309
X137.795Y121.761
X137.795Y78.899
X140.97Y95.409
X142.558Y59.849
X145.732Y38.259
X147.32Y97.949
X150.495Y119.221
X150.495Y76.359
X152.082Y40.799
X155.257Y57.309
X156.845Y121.761
X156.845Y78.899
X160.02Y95.409
X161.607Y59.849
X164.782Y38.259
X166.37Y97.949
X169.545Y119.221
X169.545Y76.359
X169.545Y19.209
X171.132Y40.799
X174.308Y57.309
X175.895Y121.761
X175.895Y78.899
X175.895Y21.749
X179.07Y95.409
X180.657Y59.849
X183.832Y38.259
X185.42Y97.949
X188.595Y76.359
X190.183Y40.799
X193.357Y119.221
X193.357Y57.309
X194.945Y78.899
X198.12Y95.409
X198.12Y19.209
X199.707Y121.761
X199.707Y59.849
X202.882Y38.259
X204.47Y97.949
X204.47Y21.749
X207.645Y76.359
X209.232Y40.799
X212.407Y119.221
X212.407Y57.309
X213.995Y78.899
X217.17Y95.409
X217.17Y19.209
X218.757Y121.761
X218.757Y59.849
X221.932Y38.259
X223.52Y97.949
X223.52Y21.749
X226.695Y76.359
X228.282Y40.799
X231.457Y119.221
X231.457Y57.309
X233.045Y78.899
X236.22Y95.409
X236.22Y19.209
X237.807Y121.761
X237.807Y59.849
X242.57Y97.949
X242.57Y21.749
X245.745Y76.359
X248.126Y38.259
X250.507Y119.221
X252.095Y78.899
X254.476Y40.799
X256.54Y87.789
X256.858Y121.761
X260.032Y14.446
X262.414Y57.309
X262.89Y90.329
X264.795Y95.409
X266.382Y16.986
X268.764Y59.849
X269.558Y76.359
X271.145Y97.949
X274.32Y119.221
X275.59Y87.789
X275.907Y78.899
X279.082Y33.496
X279.082Y14.446
X280.67Y121.761
X281.94Y90.329
X285.433Y36.036
X285.433Y16.986
X298.132Y14.446
X302.895Y119.221
X302.895Y95.409
X302.895Y76.359
X302.895Y57.309
X302.895Y38.259
X304.482Y16.986
X309.245Y121.761
X309.245Y97.949
X309.245Y78.899
X309.245Y59.849
X309.245Y40.799
X321.945Y95.409
X321.945Y76.359
X321.945Y57.309
X321.945Y38.259
X321.945Y19.209
X328.295Y97.949
X328.295Y78.899
X328.295Y59.849
X328.295Y40.799
X328.295Y21.749
X340.995Y95.409
X340.995Y76.359
X340.995Y57.309
X340.995Y38.259
X340.995Y19.209
X347.345Y97.949
X347.345Y78.899
X347.345Y59.849
X347.345Y40.799
X347.345Y21.749
X360.045Y95.409
X360.045Y66.834
X360.045Y28.734
X366.395Y97.949
X366.395Y69.374
X366.395Y31.274
T6
X11.43Y42.704
X35.242Y42.704
X80.486Y9.684
X82.867Y9.684
X104.299Y9.684
X120.968Y9.684
X144.78Y9.684
X161.449Y9.684
X182.88Y9.684
X185.261Y9.684
X254.317Y47.784
X256.699Y99.854
X278.13Y47.784
X280.511Y99.854
X370.84Y76.2
X370.84Y52.387
X370.84Y38.1
X370.84Y14.287
T3
G00X288.098Y124.996
M15
G01X288.098Y124.396
M16
G05
G00X288.098Y121.066
M15
G01X288.098Y119.966
M16
G05
G00X296.738Y124.996
M15
G01X296.738Y124.396
M16
G05
G00X296.738Y121.066
M15
G01X296.738Y119.966
M16
G05
M30
